<?xml version="1.0" encoding="utf-8"?>
<!-- Generator: Adobe Illustrator 27.0.0, SVG Export Plug-In . SVG Version: 6.00 Build 0)  -->
<svg version="1.1" id="Layer_1" xmlns="http://www.w3.org/2000/svg" xmlns:xlink="http://www.w3.org/1999/xlink" x="0px" y="0px"
	 viewBox="0 0 253 39.3" style="enable-background:new 0 0 253 39.3;" xml:space="preserve">
<style type="text/css">
	.st0{fill:#FFFFFF;}
</style>
<g>
	<g>
		<path class="st0" d="M10.4,29c0-3.3,0.1-4.5,0.8-5.8c0.7-1.6,2.5-2.7,4.6-2.7c1.9,0,3.3,0.7,4,2c0.7,1.2,0.8,2.3,0.8,6.5v6.2
			c3.2-0.5,6.8-0.9,10.7-1.4V29c0-3,0.2-4.7,0.8-5.9c0.7-1.5,2.6-2.6,4.6-2.6s3.5,0.8,4.1,2.2c0.4,1.1,0.5,1.8,0.5,6.3v3.8
			c3.4-0.3,7-0.6,10.7-0.8v-6.5c0-6.1-0.6-8.3-2.7-10.5c-1.9-1.9-5-3-8.3-3c-5,0-8.3,1.9-10.6,6.3C28,13.8,25.1,12,20.3,12
			c-5.2,0-8.7,2.2-10.3,6.3v-5.5H0V39c0.9-0.2,4.5-1.1,10.4-2.2V29L10.4,29z"/>
		<path class="st0" d="M70.2,30c0-7.7,1.9-11,6.2-11c4.4,0,6.1,3.4,6.1,12.2v0.1c3.8,0,7.6,0.1,11.3,0.3c0-0.2,0-0.4,0-0.6
			c0-11.5-7-19-17.7-19s-17.3,7.5-17.3,18.6c0,0.3,0,0.7,0,1c3.6-0.2,7.4-0.3,11.3-0.3C70.2,30.9,70.2,30.5,70.2,30L70.2,30z"/>
		<path class="st0" d="M111.1,30.1c0-7.7,1.9-11,6.2-11c4.4,0,6.1,3.4,6.1,12.2c0,0.7,0,1.4,0,2c3.8,0.3,7.5,0.6,11.2,0.9
			c0.1-1,0.2-2.1,0.2-3.2c0-11.5-7-19-17.7-19s-17.3,7.5-17.3,18.6c0,0.4,0,0.8,0,1.1c3.8,0.2,7.6,0.4,11.4,0.6
			C111.1,31.7,111.1,30.9,111.1,30.1L111.1,30.1z"/>
		<path class="st0" d="M151.5,28.7c0-5.4,2-8.3,5.7-8.3c1.9,0,3.3,0.9,3.9,2.4c0.6,1.3,0.7,2.1,0.7,6V37c3.7,0.3,7.3,0.7,10.7,1V26
			c0-5.2-0.7-8.1-2.4-10.2c-1.9-2.3-5-3.5-8.7-3.5c-5.1,0-7.6,1.5-10.7,6.9v-6.1h-10v22.1c3.7,0.3,7.2,0.7,10.7,1L151.5,28.7
			L151.5,28.7z"/>
		<path class="st0" d="M189.9,31.5c0-8,2-12,6.1-12c3.5,0,5.3,2.9,5.3,8.5v6.8c0,1.6-0.3,3-0.8,4.1c3.9-0.1,7.6-0.2,11.3-0.5V0
			h-10.4v16.7c-2.6-3.4-4.8-4.6-9-4.6c-8.7,0-13.6,7-13.6,19.3c0,2.6,0.2,4.9,0.7,7c4.1,0.3,8,0.5,11.7,0.6
			C190.4,37.2,189.9,34.7,189.9,31.5L189.9,31.5z"/>
		<path class="st0" d="M229.4,30.1c0-7.7,1.9-11,6.2-11s6.1,3.4,6.1,12.2c0,1.5-0.1,2.9-0.2,4.1c6.5-1,10.7-1.8,11.4-2
			c0.1-0.8,0.1-1.5,0.1-2.3c0-11.5-7-19-17.7-19S218,19.6,218,30.7c0,2.7,0.3,5.1,1,7.3c3.8-0.3,7.5-0.7,10.9-1.1
			C229.5,35.1,229.4,32.8,229.4,30.1L229.4,30.1z"/>
	</g>
</g>
</svg>
